<svg width="16" height="19" viewBox="0 0 16 19" fill="none" xmlns="http://www.w3.org/2000/svg">
<path id="Vector" d="M7.84915 2.36451C6.33128 2.36451 4.87558 2.96748 3.80229 4.04078C2.729 5.11407 2.12602 6.56977 2.12602 8.08764C2.12602 10.4276 3.58297 12.6849 5.18218 14.4338C5.99988 15.3246 6.89211 16.1441 7.84915 16.8833C7.99196 16.7737 8.15956 16.6402 8.35197 16.4827C9.12035 15.8517 9.84351 15.1676 10.5161 14.4354C12.1153 12.6849 13.5723 10.4284 13.5723 8.08764C13.5723 6.56977 12.9693 5.11407 11.896 4.04078C10.8227 2.96748 9.36702 2.36451 7.84915 2.36451ZM7.84915 18.8913L7.38558 18.5724L7.38313 18.5708L7.37822 18.5667L7.36187 18.5552L7.30055 18.5119L7.0798 18.3508C5.96123 17.5102 4.92208 16.5687 3.97541 15.5383C2.30426 13.7086 0.490845 11.0604 0.490845 8.08682C0.490845 6.13528 1.26609 4.26366 2.64604 2.88371C4.02599 1.50376 5.89761 0.728516 7.84915 0.728516C9.8007 0.728516 11.6723 1.50376 13.0523 2.88371C14.4322 4.26366 15.2075 6.13528 15.2075 8.08682C15.2075 11.0604 13.394 13.7094 11.7229 15.5367C10.7765 16.5671 9.73761 17.5085 8.61932 18.3492C8.52616 18.4188 8.43213 18.4872 8.33725 18.5544L8.32009 18.5659L8.31518 18.57L8.31354 18.5708L7.84915 18.8913ZM7.84915 6.45246C7.41548 6.45246 6.99956 6.62474 6.69291 6.9314C6.38625 7.23805 6.21397 7.65396 6.21397 8.08764C6.21397 8.52132 6.38625 8.93723 6.69291 9.24389C6.99956 9.55054 7.41548 9.72282 7.84915 9.72282C8.28283 9.72282 8.69874 9.55054 9.0054 9.24389C9.31205 8.93723 9.48433 8.52132 9.48433 8.08764C9.48433 7.65396 9.31205 7.23805 9.0054 6.9314C8.69874 6.62474 8.28283 6.45246 7.84915 6.45246ZM4.57879 8.08764C4.57879 7.22029 4.92335 6.38846 5.53666 5.77515C6.14997 5.16184 6.9818 4.81728 7.84915 4.81728C8.71651 4.81728 9.54834 5.16184 10.1616 5.77515C10.775 6.38846 11.1195 7.22029 11.1195 8.08764C11.1195 8.95499 10.775 9.78682 10.1616 10.4001C9.54834 11.0134 8.71651 11.358 7.84915 11.358C6.9818 11.358 6.14997 11.0134 5.53666 10.4001C4.92335 9.78682 4.57879 8.95499 4.57879 8.08764Z" fill="#D9D9D9"/>
</svg>
